inDegrees=yes
name=ik_rai_1
DataType=double
version=3
OpenSimVersion=4.5
endheader
time	gndpitch	gndroll	gndyaw	spine_tx	spine_ty	spine_tz	pitch2	roll2	yaw2	aux7jnt_r3	aux7jnt_r1	aux7jnt_r2	aux6jnt_r3	aux6jnt_r1	aux6jnt_r2	aux5jnt_r3	aux5jnt_r1	aux5jnt_r2	aux4jnt_r3	aux4jnt_r1	aux4jnt_r2	aux3jnt_r3	aux3jnt_r1	aux3jnt_r2	pitch1	roll1	yaw1	aux1jnt_r3	aux1jnt_r1	aux1jnt_r2
60.27499999999765	4.21296440140691e-09	8.002416233845703e-10	4.440363815649541e-10	-3.97872216927308e-17	8.44526185968539e-17	-7.30666612219483e-19	-0.3776170299438285	0.08308063814306992	0.02326572396153814	-4.045909805429567	0.6521427069558445	0.2506091940280193	-4.759882221511935	0.7473471964029934	0.2919328798609933	-4.759882221511935	1.028195940102843	0.2919328798609933	-3.569911666133952	1.028195940102843	0.2919328798609933	-2.379941110755968	0.9329941780309894	0.1253045970140097	0.4146068192341525	-0.05197451737191562	0.007652851379007491	13.20789628694806	-1.488960243820069	0.04867093841806545
60.29999999999765	4.21296440140691e-09	8.002416233845703e-10	4.440363815649541e-10	-3.97872216927308e-17	8.44526185968539e-17	-7.30666612219483e-19	-0.3833001253068793	0.08303143249042072	0.02165707801167432	-4.106800309382684	0.6517564664522397	0.2332814948926645	-4.831517932925074	0.7469045697287577	0.2717479655382416	-4.831517932925074	1.027586976890537	0.2717479655382416	-3.623638449693807	1.027586976890537	0.2717479655382416	-2.415758966462537	0.9324415993739895	0.1166407474463323	0.4145778198137426	-0.0521188175692681	0.004797253502176182	13.20697246871983	-1.493094139965671	0.03050978233037966
60.32499999999764	4.21296440140691e-09	8.002416233845703e-10	4.440363815649541e-10	-3.97872216927308e-17	8.44526185968539e-17	-7.30666612219483e-19	-0.3888846213478654	0.08295183624707692	0.02019181290240257	-4.166634388618911	0.6511316745541768	0.217498237570477	-4.901910794776533	0.7461885662093253	0.2533621605739661	-4.901910794776533	1.026601903399497	0.2533621605739661	-3.676433096082399	1.026601903399497	0.2533621605739661	-2.450955397388267	0.9315477348913278	0.1087491187852385	0.4145450084854458	-0.05227367702687249	0.001687240109821389	13.20592721668567	-1.497530536634881	0.01073058333614954
60.34999999999764	4.21296440140691e-09	8.002416233845703e-10	4.440363815649541e-10	-3.97872216927308e-17	8.44526185968539e-17	-7.30666612219483e-19	-0.3944703176189536	0.08283421945008346	0.01885972779976	-4.226481327504873	0.6502084397537563	0.2031495427049322	-4.972318785590594	0.7451305509431012	0.2366474672819237	-4.972318785590594	1.025146292130019	0.2366474672819237	-3.729239089192944	1.025146292130019	0.2366474672819237	-2.486159392795297	0.9302269002265219	0.1015747713524661	0.4144857207710714	-0.05245021944276004	-0.001511123114466881	13.20403852130918	-1.502588104302579	-0.009610506777655467
60.37499999999764	4.21296440140691e-09	8.002416233845703e-10	4.440363815649541e-10	-3.97872216927308e-17	8.44526185968539e-17	-7.30666612219483e-19	-0.399909126811889	0.08230262457134208	0.01837124363543615	-4.284754471189181	0.6460356778326298	0.197887784123123	-5.040875257176372	0.7403486191822323	0.2305180818781716	-5.040875257176372	1.018567338136426	0.2305180818781716	-3.780656442882278	1.018567338136426	0.2305180818781716	-2.520437628588186	0.9242570986214483	0.09894389206156148	0.4144166548803989	-0.05237935422093048	-0.00549366281760866	13.20183832806911	-1.500557965240038	-0.03493883670848447
60.39999999999764	4.21296440140691e-09	8.002416233845703e-10	4.440363815649541e-10	-3.97872216927308e-17	8.44526185968539e-17	-7.30666612219483e-19	-0.405248797267298	0.07693640644812957	0.02731000988711504	-4.341965410686572	0.6039134687210347	0.2941726454771651	-5.108182079840627	0.6920771065975119	0.342679636729026	-5.108182079840627	0.9521556709740737	0.342679636729026	-3.831136559880471	0.9521556709740737	0.342679636729026	-2.554091039920313	0.8639945587697484	0.1470863227385825	0.4143895560527675	-0.04814309282552973	-0.01968795127795734	13.20097505595623	-1.379198015804702	-0.1252122923562667
60.42499999999764	4.21296440140691e-09	8.002416233845703e-10	4.440363815649541e-10	-3.97872216927308e-17	8.44526185968539e-17	-7.30666612219483e-19	-0.4107989545576897	0.0765099826838976	0.02587763153357529	-4.401431573550607	0.600566249030235	0.2787436313051928	-5.178142099962233	0.6882412356677564	0.3247064871081198	-5.178142099962233	0.9468783019871899	0.3247064871081198	-3.883606574971675	0.9468783019871899	0.3247064871081198	-2.589071049981116	0.8592058270231588	0.1393718156525964	0.4141628017262535	-0.04805526497994277	-0.02263379572572124	13.19375147089136	-1.376681933366773	-0.1439474025270477
60.44999999999764	4.21296440140691e-09	8.002416233845703e-10	4.440363815649541e-10	-3.97872216927308e-17	8.44526185968539e-17	-7.30666612219483e-19	-0.4161132411248522	0.07543394765223341	0.02488065809007911	-4.458370541939144	0.5921198960169102	0.2680046269417407	-5.245128957400359	0.6785618232063283	0.3121966967836983	-5.245128957400359	0.9335614224386714	0.3121966967836983	-3.933846718050269	0.9335614224386714	0.3121966967836983	-2.62256447870018	0.8471219715986134	0.1340023134708703	0.414144910470836	-0.04747811463542292	-0.02599581818809327	13.19318151922863	-1.36014779392402	-0.1653293398105976
60.47499999999764	4.21296440140691e-09	8.002416233845703e-10	4.440363815649541e-10	-3.97872216927308e-17	8.44526185968539e-17	-7.30666612219483e-19	-0.4214121161459903	0.07412307249064659	0.0241655189197028	-4.515144386087427	0.5818301619047767	0.2603014301101199	-5.311921551502594	0.6667699195962574	0.3032232972086624	-5.311921551502594	0.9173381898149119	0.3032232972086624	-3.983941163626944	0.9173381898149119	0.3032232972086624	-2.655960775751297	0.8324008654393201	0.1301507150550599	0.4140963942745696	-0.04666973598991486	-0.02952243050335152	13.19163596604719	-1.336989451605962	-0.187758042828555
60.49999999999763	4.21296440140691e-09	8.002416233845703e-10	4.440363815649541e-10	-3.97872216927308e-17	8.44526185968539e-17	-7.30666612219483e-19	-0.4266644336520767	0.07263946503381695	0.02397754352810201	-4.571419398107584	0.5701845630675308	0.2582766333978369	-5.378127285716106	0.6534242123628248	0.3008646258213558	-5.378127285716106	0.8989772431742341	0.3008646258213558	-4.033595464287079	0.8989772431742341	0.3008646258213558	-2.689063642858053	0.8157399784908846	0.1291383166989185	0.4140630381330724	-0.04564573325230879	-0.03336244482272507	13.19057335820527	-1.307653934068628	-0.2121799335992802
60.52499999999763	4.21296440140691e-09	8.002416233845703e-10	4.440363815649541e-10	-3.97872216927308e-17	8.44526185968539e-17	-7.30666612219483e-19	-0.431933224895864	0.0711788557531397	0.02441781720092449	-4.627870915029826	0.5587194887566485	0.2630190875969906	-5.444540672246612	0.6402853839263509	0.3063890772180319	-5.444540672246612	0.8809009191830428	0.3063890772180319	-4.083405504184958	0.8809009191830428	0.3063890772180319	-2.722270336123306	0.7993373606763331	0.1315095437984953	0.4140394976198317	-0.04443252890386078	-0.03772115869112182	13.18982344131292	-1.272898189642133	-0.2399006724147028
60.54999999999763	4.21296440140691e-09	8.002416233845703e-10	4.440363815649541e-10	-3.97872216927308e-17	8.44526185968539e-17	-7.30666612219483e-19	-0.4374970953602013	0.06978907690703934	0.02450771364424209	-4.687484005231692	0.5478103989973117	0.2639874165964697	-5.514673547636088	0.6277837066707623	0.3075170768294103	-5.514673547636088	0.8637011840926549	0.3075170768294103	-4.136005160727064	0.8637011840926549	0.3075170768294103	-2.757336773818044	0.7837301674584695	0.1319937082982348	0.4139902111030374	-0.04364584019756722	-0.04182549014694656	13.18825334846359	-1.250361218311516	-0.2660035788531777
60.57499999999763	4.21296440140691e-09	8.002416233845703e-10	4.440363815649541e-10	-3.97872216927308e-17	8.44526185968539e-17	-7.30666612219483e-19	-0.4428733754318118	0.05707490014367107	0.0495777757474602	-4.745087191882726	0.4480102790596209	0.5340322287977312	-5.582441836408799	0.5134140464099369	0.6220903710103884	-5.582441836408799	0.7063520685582612	0.6220903710103884	-4.186831377306599	0.7063520685582612	0.6220903710103884	-2.7912209182044	0.6409501748655845	0.2670161143988656	0.4138926530605509	-0.03225730081221675	-0.07235232329524252	13.18514549676569	-0.9241035975119722	-0.4601494654876542
60.59999999999763	4.21296440140691e-09	8.002416233845703e-10	4.440363815649541e-10	-3.97872216927308e-17	8.44526185968539e-17	-7.30666612219483e-19	-0.4482087180994726	0.05662891433009577	0.04789179285322755	-4.802251762076042	0.444509506771041	0.515871486627524	-5.64969410708433	0.5094022061682076	0.6009350507408187	-5.64969410708433	0.7008326020121353	0.6009350507408187	-4.237270580313247	0.7008326020121353	0.6009350507408187	-2.824847053542165	0.6359417616317635	0.257935743313762	0.4136337141832227	-0.03218828224548158	-0.07472656941934576	13.17689662656445	-0.9221263612209845	-0.475249299676586
60.62499999999763	4.21296440140691e-09	8.002416233845703e-10	4.440363815649541e-10	-3.97872216927308e-17	8.44526185968539e-17	-7.30666612219483e-19	-0.4534512858064096	0.05612878220466454	0.04618359255370403	-4.858422311625358	0.4405837122007992	0.4974714273381721	-5.715776944574562	0.504903295830898	0.5795009516496537	-5.715776944574562	0.6946430272522724	0.5795009516496537	-4.286832708430923	0.6946430272522724	0.5795009516496537	-2.857888472287281	0.6303252862206103	0.248735713669086	0.4135320228067496	-0.03204358724220675	-0.07668991943358278	13.17365710157011	-0.9179811547188483	-0.487735898841202
60.64999999999763	4.21296440140691e-09	8.002416233845703e-10	4.440363815649541e-10	-3.97872216927308e-17	8.44526185968539e-17	-7.30666612219483e-19	-0.4585087281084179	0.05558519316441386	0.044349949927586	-4.91260936829262	0.4363168019302006	0.4777201528269405	-5.779526266746904	0.5000134712663945	0.5564928314912868	-5.779526266746904	0.6879156349649431	0.5564928314912868	-4.334644700060179	0.6879156349649431	0.5564928314912868	-2.889763133373452	0.6242207903822173	0.2388600764134702	0.4134170322954431	-0.03195224421282172	-0.07859204999773575	13.16999391351613	-0.9153643696829986	-0.4998331518735761
60.67499999999762	4.21296440140691e-09	8.002416233845703e-10	4.440363815649541e-10	-3.97872216927308e-17	8.44526185968539e-17	-7.30666612219483e-19	-0.4633325057067847	0.0550119007739889	0.04261134478010092	-4.964292866484816	0.4318167347698462	0.458992584518108	-5.840330233226935	0.4948564518900442	0.5346772194567946	-5.840330233226935	0.680820637604529	0.5346772194567946	-4.380247674920201	0.680820637604529	0.5346772194567946	-2.920165116613468	0.6177827264177258	0.229496292259054	0.4133641436683274	-0.03194165645511678	-0.08059235198075468	13.16830907026393	-0.9150610527674962	-0.5125547597830298
60.69999999999762	4.21296440140691e-09	8.002416233845703e-10	4.440363815649541e-10	-3.97872216927308e-17	8.44526185968539e-17	-7.30666612219483e-19	-0.4679536617566659	0.05440869156858828	0.04110162051795015	-5.013805412509067	0.4270818351245949	0.442730430752008	-5.898580144593312	0.4894303174912645	0.515733551407852	-5.898580144593312	0.6733553933564318	0.515733551407852	-4.423935108444985	0.6733553933564318	0.515733551407852	-2.949290072296656	0.6110086971209784	0.221365215376004	0.413336048347651	-0.0319655492328981	-0.08253669735452299	13.16741405343249	-0.9157455304313541	-0.5249204924052139
60.72499999999762	4.21296440140691e-09	8.002416233845703e-10	4.440363815649541e-10	-3.97872216927308e-17	8.44526185968539e-17	-7.30666612219483e-19	-0.4723070004760397	0.05371265323859248	0.03978146873414119	-5.060448477875293	0.4216182718827405	0.4285102768860911	-5.953454204636762	0.4831691439358126	0.4991685946182835	-5.953454204636762	0.6647413070776862	0.4991685946182835	-4.465090653477571	0.6647413070776862	0.4991685946182835	-2.976727102318381	0.603192198306246	0.2142551384430455	0.4133162949505324	-0.03197850598023036	-0.08443294730166293	13.16678478056877	-0.9161167139005306	-0.5369803456326881
